<?xml version="1.0" encoding="utf-8"?>
<!-- Generator: Adobe Illustrator 19.0.0, SVG Export Plug-In . SVG Version: 6.00 Build 0)  -->
<svg version="1.1" id="Слой_1" xmlns="http://www.w3.org/2000/svg" xmlns:xlink="http://www.w3.org/1999/xlink" x="0px" y="0px"
	 viewBox="-230 390.9 135 60" style="enable-background:new -230 390.9 135 60;" xml:space="preserve">
<style type="text/css">
	.st0{fill:#F9DB07;}
	.st1{fill:#E22726;}
</style>
<path class="st0" d="M-103.2,431.9c-4.2,4.3-9.9,6.6-16.1,6.6c-0.4,0-0.9,0-1.3,0c-0.4,0-1.1,0-2-0.1l-0.8,0
	c-4-0.2-10.1-0.6-12.3-0.6c-11.6,0-21.8,5.1-26.9,10.6c-5.1-5.4-15.3-10.5-26.9-10.5c-2.2,0-8.5,0.4-12.3,0.6c0,0-2.3,0.1-2.8,0.1
	c-0.4,0-0.9,0-1.3,0c-12.6,0-22.5-9.8-22.6-22.4c0-10.3,6.9-19.5,16.9-22.4l0.1,0c2-0.7,6-0.9,6.9-0.9h0.4c8.6,0,16.9,2.7,24.1,5.1
	c4,1.3,8.1,2.7,12.3,3.4c1.3,0.2,2.7,0.4,4,0.4c1.1,0,2.3,0,3.4-0.1c1.1-0.1,2.2-0.3,3.3-0.5c1.2-0.2,2.3-0.5,3.5-0.9
	c1.2-0.3,2.4-0.7,3.6-1.1c1.2-0.4,2.5-0.8,3.7-1.2c0.1,0,0.3-0.1,0.5-0.1c7.3-2.4,15.5-5.1,24.1-5.2h0.4c0.7,0,4.9,0.2,7,0.9l0.1,0
	c9.9,2.9,16.9,12.1,16.9,22.3C-96.8,422-99,427.6-103.2,431.9z"/>
<path class="st1" d="M-162.5,450.9l-1.3-1.4c-4.7-5-14.4-10-25.6-10c-2.1,0-8.2,0.4-11.9,0.6h-0.2c-0.5,0-2.7,0.1-2.8,0.1
	c-0.5,0-0.9,0-1.4,0c-13.6,0-24.3-10.6-24.3-24.2c0-11.1,7.4-20.9,18-24h0c2.3-0.8,6.8-1,7.5-1h0.5c8.9,0,17.3,2.7,24.7,5.2l0.8,0.3
	c3.7,1.2,7.5,2.5,11.2,3.1c1.5,0.2,2.7,0.4,3.8,0.4c1.2,0,2.3,0,3.2-0.1c0.9-0.1,1.9-0.2,3.2-0.5c1-0.2,2.1-0.5,3.4-0.8
	c1.1-0.3,2.3-0.7,3.6-1c1-0.3,2-0.7,3.1-1l1.1-0.4c7.4-2.6,15.7-5.3,24.7-5.3h0.4c0,0,5,0.1,7.5,1h0c10.7,3.1,18.1,13,18.2,24
	c0,6.5-2.4,12.6-6.9,17.1c-4.4,4.5-10.5,7-17,7.1c-0.1,0-0.2,0-0.3,0c-0.4,0-0.9,0-1.4,0c-0.4,0-0.9,0-1.6-0.1l-1.4-0.1
	c-3.9-0.2-9.8-0.6-11.9-0.5c-0.1,0-0.3,0-0.4,0c-11,0.1-20.6,5.1-25.2,10.1L-162.5,450.9z M-189.7,436c0.1,0,0.2,0,0.3,0
	c12,0,21.7,5,26.9,9.8c5.1-4.8,14.6-9.7,26.4-9.9c0.1,0,0.3,0,0.5,0c2.2,0,7.9,0.3,12.1,0.5l1.4,0.1c0.7,0,1.2,0,1.6,0.1
	c0.4,0,0.8,0,1.2,0c5.7,0,10.9-2.2,14.8-6c3.8-3.9,5.9-9.1,5.9-14.7c0-9.5-6.5-18-15.7-20.6l-0.2,0c-1.6-0.6-5.5-0.8-6.3-0.8h-0.4
	c-8.3,0-16.4,2.7-23.6,5.1l-1.1,0.4c-1,0.3-2.1,0.7-3.1,1c-1.3,0.4-2.5,0.8-3.7,1.1c-1.3,0.4-2.5,0.7-3.6,0.9
	c-1.4,0.3-2.5,0.5-3.5,0.6c-1.1,0.1-2.2,0.1-3.7,0.1c-1.3,0-2.7-0.2-4.3-0.5c-4-0.7-7.9-2-11.8-3.3l-0.8-0.3c-7.1-2.4-15.3-5-23.6-5
	h-0.4c-1.1,0-4.8,0.3-6.4,0.8l-0.2,0c-9.1,2.6-15.6,11.1-15.5,20.6c0,11.6,9.1,20.7,20.8,20.7c0.4,0,0.8,0,1.2,0
	c0.4,0,2.4-0.1,2.7-0.1h0.3C-197.7,436.3-192.1,436.1-189.7,436z"/>
<path class="st1" d="M-154.3,419.4c0,1.8,0,3.7,0,5.6c0,1-0.2,1.2-1.2,1.2c-0.4,0-0.9,0-1.3,0c-0.9,0-1.1-0.2-1.1-1.1
	c0-2.9,0-5.9,0-8.8c0-0.4-0.1-0.6-0.5-0.5c-1.2,0-2.4,0-3.6,0c-0.4,0-0.4,0.1-0.4,0.5c0,1.8,0,3.6,0,5.5c0.1,3.1-2.2,4.8-5.1,4.6
	c-0.5,0-0.8-0.3-0.8-0.9c0-0.5,0-1,0-1.6c0-0.5,0.2-0.8,0.7-0.8c1-0.1,1.6-0.7,1.6-1.7c0-2.6,0-5.1,0-7.7c0-0.9,0.2-1.1,1.1-1.1
	c3.2,0,6.4,0,9.7,0c0.9,0,1.1,0.2,1.1,1.1C-154.3,415.6-154.3,417.5-154.3,419.4z"/>
<path class="st1" d="M-170.8,419.4c0,1.9,0,3.8,0,5.7c0,0.8-0.2,1-1,1c-0.5,0-1,0-1.4,0c-1,0-1.2-0.2-1.2-1.2c0-2.9,0-5.8,0-8.7
	c0-0.4-0.1-0.5-0.5-0.5c-1.2,0-2.4,0-3.7,0c-0.3,0-0.4,0-0.4,0.4c0,1.8,0,3.7,0,5.6c0,3-2.3,4.7-5.1,4.5c-0.5,0-0.8-0.3-0.8-0.9
	c0-0.6,0-1.1,0-1.7c0-0.4,0.2-0.7,0.7-0.8c1.1-0.1,1.6-0.6,1.6-1.7c0-2.5,0-5,0-7.6c0-0.2,0-0.3,0-0.5c0-0.4,0.2-0.6,0.6-0.6
	c0.2,0,0.3,0,0.5,0c3.2,0,6.3,0,9.5,0c1,0,1.2,0.1,1.2,1.2C-170.8,415.6-170.8,417.5-170.8,419.4z"/>
<path class="st1" d="M-121.5,419.3c0-1.9,0-3.8,0-5.7c0-0.8,0.2-1,1-1c0.5,0,1,0,1.6,0c0.8,0,1,0.2,1,1c0,1.2,0,2.4,0,3.6
	c0,0.3,0.1,0.4,0.4,0.4c1.6,0,3.2,0,4.9,0c0.4,0,0.4-0.1,0.4-0.4c0-1.2,0-2.4,0-3.6c0-0.7,0.2-0.9,0.9-0.9c0.6,0,1.2,0,1.8,0
	c0.7,0,0.9,0.3,0.9,0.9c0,0.8,0,1.5,0,2.3c0,3.1,0,6.2,0,9.3c0,0.9-0.2,1.2-1.1,1.2c-0.5,0-1,0-1.6,0c-0.6,0-0.9-0.3-0.9-0.9
	c0-1.4,0-2.7,0-4.2c0-0.3-0.1-0.4-0.4-0.4c-1.6,0-3.2,0-4.9,0c-0.4,0-0.4,0.1-0.4,0.5c0,1.4,0,2.7,0,4.1c0,0.7-0.2,1-1,1
	c-0.5,0-1.1,0-1.6,0c-0.8,0-1-0.3-1-1C-121.5,423.2-121.5,421.3-121.5,419.3z"/>
<path class="st1" d="M-146.1,412.6c1.6,0,3.2,0,4.8,0c0.8,0,1,0.2,1,1c0,0.4,0,0.9,0,1.3c0,0.6-0.3,0.9-0.9,0.9c-0.9,0-1.8,0-2.7,0
	c-0.3,0-0.4,0.1-0.4,0.4c0,3,0,5.9,0,8.9c0,0.9-0.2,1.1-1.1,1.1c-0.5,0-1,0-1.5,0c-0.8,0-1-0.3-1-1c0-3,0-6,0-8.9
	c0-0.4-0.1-0.5-0.5-0.5c-0.9,0-1.7,0-2.6,0c-0.7,0-1-0.2-1-0.9c0-0.4,0-0.9,0-1.3c0-0.8,0.2-1,1-1
	C-149.3,412.6-147.7,412.6-146.1,412.6z"/>
<path class="st1" d="M-204.1,409.2c-1.2-1-2.7-1.3-4.3-1.3c-1.9,0-3.7,0-5.5,0c-0.9,0-1.1,0.3-1.1,1.1c0,2.7,0,5.4,0,8
	c0,2.7,0,5.5,0,8.2c0,0.7,0.3,1,1,1c0.6,0,1.1,0,1.7,0c0.8,0,1-0.2,1-1c0-1.7,0-3.3,0-4.9c0-0.3,0-0.4,0.4-0.4c1.2,0,2.4,0,3.6-0.1
	c2.8-0.3,4.9-2.2,5.2-5C-201.7,412.6-202.2,410.6-204.1,409.2z M-205.7,414.4c-0.2,1.4-1.2,2.3-2.8,2.3c-0.8,0-1.6,0-2.4,0
	c-0.2,0-0.3-0.1-0.3-0.3c0-0.9,0-1.7,0-2.6s0-1.7,0-2.6c0-0.2,0-0.4,0.3-0.4c0.9,0,1.7,0,2.6,0
	C-206.4,411.1-205.5,412.5-205.7,414.4z"/>
<path class="st1" d="M-188.3,414.4c-2-1.9-4.5-2.5-7.2-2c-4.3,0.8-6.9,5.1-5.5,9.2c1,2.9,3.9,4.9,7.4,4.9c0.7,0,1.4-0.1,2.1-0.3
	c2.6-0.8,4.4-2.4,5.1-5C-185.7,418.7-186.3,416.3-188.3,414.4z M-193.7,423.3c-2.2,0-4-1.7-4-3.9c0-2.2,1.7-3.9,4-3.9
	c2.2,0,4,1.7,4,3.9C-189.7,421.6-191.5,423.3-193.7,423.3z"/>
<path class="st1" d="M-126.2,414.3c-2-1.9-4.5-2.5-7.2-1.9c-4.3,0.8-6.9,5.1-5.5,9.3c1,2.9,3.9,4.8,7.4,4.8c0.6,0,1.4-0.1,2.1-0.3
	c2.6-0.8,4.4-2.4,5.1-5C-123.6,418.6-124.2,416.2-126.2,414.3z M-131.7,423.3c-2.2,0-4-1.7-4-3.9c0-2.2,1.7-4,4-4c2.2,0,4,1.7,4,3.9
	C-127.7,421.5-129.4,423.3-131.7,423.3z"/>
<path class="st1" d="M-102.6,409.3c0,1.3-1,2.4-2.4,2.4s-2.4-1-2.4-2.4c0-1.3,1-2.4,2.4-2.4C-103.6,407-102.6,407.9-102.6,409.3z
	 M-103.1,409.3c0-1-0.8-1.7-1.8-1.7c-1,0-1.8,0.8-1.8,1.8c0,1,0.8,1.8,1.8,1.8C-103.9,411.1-103.1,410.3-103.1,409.3z M-104.2,409.7
	l0.5,0.8h-0.7l-0.5-0.7h0h-0.4v0.7h-0.7v-2.4h1c0.7,0,1,0.3,1,0.9C-103.8,409.3-103.9,409.6-104.2,409.7z M-104.9,409.3
	c0.3,0,0.5-0.1,0.5-0.4s-0.2-0.4-0.5-0.4h-0.4v0.8H-104.9z"/>
</svg>
